# xmcd
#
# Track frame offsets:
# 150
# 19648
# 35778
# 50613
# 64899
# 84459
# 98756
# 111431
# 129717
# 143450
# 171440
# 191473
# 209800
# 226333
# 245460
# 265097
# 284662
# 303612
# 330059
#
# Disc length: 4754 seconds
#
# Revision: 0
# Processed by: cddbd v1.5PL3 Copyright (c) Steve Scherf et al.
# Submitted via: Audion 3.0.2 (http://www.panic.com/audion/)
#
DISCID=19129013
DTITLE=Michael Franks - Previously unavailable '73 - The Camera Never Lies '87
DYEAR=1900
DGENRE=
TTITLE0=Can't seem to shake this rock 'n' roll 
TTITLE1=Just like key largo
TTITLE2=When blackbirds fly  4.Lovesick Lizzie
TTITLE3=Lovesick Lizzie
TTITLE4=Life's little higway
TTITLE5=King of Oklahoma
TTITLE6=Dobro Ladies
TTITLE7=Three Today
TTITLE8=Little Sparrow
TTITLE9=Born With The Moon In Vergo
TTITLE10=Face To Face
TTITLE11=I Surrender
TTITLE12=The Camera Never Lies 
TTITLE13=Lip Service
TTITLE14=When I Think Of Us
TTITLE15=Island Life
TTITLE16=Now You're In My Dreams
TTITLE17=Doctor Sax
TTITLE18=Innuendo
EXTD=
EXTT0=
EXTT1=
EXTT2=
EXTT3=
EXTT4=
EXTT5=
EXTT6=
EXTT7=
EXTT8=
EXTT9=
EXTT10=
EXTT11=
EXTT12=
EXTT13=
EXTT14=
EXTT15=
EXTT16=
EXTT17=
EXTT18=
PLAYORDER=
